<?xml version="1.0" encoding="utf-8"?>
<!-- Generator: Adobe Illustrator 27.5.0, SVG Export Plug-In . SVG Version: 6.00 Build 0)  -->
<svg version="1.1" id="Layer_1" xmlns="http://www.w3.org/2000/svg" xmlns:xlink="http://www.w3.org/1999/xlink" x="0px" y="0px"
	 viewBox="-5.669 -16.061 38.5 33.082" style="enable-background:new -5.669 -16.061 38.5 33.082;" xml:space="preserve">
<rect x="-5.668" y="-16.061" style="fill:#161213;" width="38.499" height="33.082"/>
<g>
	<path style="fill-rule:evenodd;clip-rule:evenodd;fill:#FED83C;" d="M8.514,0.775c0.376-1.038,2.942-7.057,2.465-7.539
		c-0.287-0.227,3.146,0.334,0.113,8.189C10.221,1.378,9.362,1.163,8.514,0.775L8.514,0.775z"/>
	<path style="fill-rule:evenodd;clip-rule:evenodd;fill:#FED83C;" d="M6.557,8.011C6.479,7.784,6.491,7.414,6.592,6.901
		C6.694,6.383,6.843,5.78,7.046,5.088c0.131-0.465,0.287-0.954,0.459-1.474c0.215,0.055,0.43,0.102,0.657,0.144
		c0.442,0.078,0.901,0.119,1.385,0.113c0.179,0,0.358-0.006,0.537-0.023c-0.078,0.19-0.149,0.376-0.215,0.56
		C9.523,5.314,9.237,6.126,9.01,6.853C8.783,7.575,8.681,8.124,8.705,8.5c0,0.113-0.089,0.227-0.262,0.334
		C8.264,8.941,8.055,8.995,7.816,8.995c-0.239,0-0.478-0.071-0.722-0.209C6.849,8.649,6.664,8.387,6.557,8.011L6.557,8.011z"/>
	<path style="fill-rule:evenodd;clip-rule:evenodd;fill:#FED83C;" d="M6.509-1.413c0.006,0.047,0.012,0.089,0.018,0.137
		c0.078,0.632,0.304,1.175,0.668,1.628C7.273,0.453,7.255,0.573,7.142,0.71C7.029,0.853,6.867,0.967,6.658,1.061
		C6.449,1.157,6.222,1.211,5.978,1.222c-0.245,0.012-0.454-0.054-0.632-0.19C4.933,0.633,4.629,0.184,4.45-0.298
		C4.265-0.781,4.181-1.277,4.193-1.789c0.012-0.507,0.102-1.015,0.263-1.527c0.06-0.179,0.125-0.352,0.191-0.524l0.006-0.013l0,0
		l0.012-0.023v-0.006l0.006-0.018l0,0l0.012-0.024v-0.006l0.006-0.012l0.006-0.006V-3.96L4.7-3.973l0,0L4.713-3.99v-0.006
		l0.006-0.006l0.006-0.012v-0.007l0.006-0.012v-0.006L4.737-4.05l0.012-0.03l0.006-0.006v-0.006L4.76-4.11l0,0l0.006-0.012
		l0.006-0.013L4.778-4.14l0.006-0.012l0,0L4.79-4.169v-0.006l0.006-0.007l0.006-0.018l0,0l0.006-0.012l0.006-0.012v-0.006
		l0.012-0.013v-0.006l0.006-0.012l0.006-0.006v-0.006l0.006-0.012v-0.006L4.85-4.301l0.006-0.012l0,0L4.868-4.33v-0.006L4.88-4.355
		v-0.006l0.006-0.012l0.006-0.006V-4.39l0.012-0.012l0,0L4.909-4.42v-0.006l0.006-0.006l0.006-0.012l0,0l0.006-0.019l0.006-0.006
		l0.006-0.006l0.006-0.018l0,0l0.012-0.024v-0.006l0.012-0.012l0,0l0.006-0.012l0.006-0.012v-0.006l0.012-0.013v-0.006l0.006-0.012
		l0.006-0.006v-0.006l0.006-0.018h0.006l0.006-0.012l0.006-0.012l0,0l0.006-0.018L5.041-4.67l0.006-0.006l0.006-0.013v-0.006
		l0.006-0.012l0.006-0.006l0.006-0.006l0.006-0.019l0,0l0.006-0.012l0.006-0.006l0.006-0.012L5.1-4.778
		C5.488-5.47,5.996-6.12,6.611-6.729L6.622-6.74l0.012-0.012L6.64-6.758l0.006-0.006l0.012-0.012L6.67-6.788l0,0L6.682-6.8
		l0.012-0.012L6.7-6.818l0,0L6.712-6.83l0.012-0.012l0,0l0.012-0.012l0.012-0.012l0.006-0.006l0.006-0.006l0.012-0.012l0.012-0.007
		v-0.006l0.012-0.006l0.012-0.012l0.006-0.006L6.82-6.931l0.012-0.013l0.012-0.012l0,0l0.012-0.012l0.012-0.006l0.006-0.012h0.006
		l0.012-0.013l0.012-0.012l0,0l0.012-0.012l0.012-0.012l0.006-0.006h0.006L6.951-7.05l0.012-0.013l0,0l0.012-0.012l0.012-0.012
		l0.006-0.006l0.006-0.006L7.01-7.104l0.012-0.013l0,0l0.012-0.012L7.046-7.14l0.006-0.006l0.006-0.006L7.07-7.157L7.082-7.17l0,0
		l0.012-0.012l0.012-0.012l0.006-0.006h0.006L7.13-7.211l0.024-0.024l0.012-0.012l0.006-0.006h0.006L7.19-7.265l0.012-0.013l0,0
		l0.012-0.012l0.012-0.006l0.012-0.012l0,0l0.012-0.012L7.261-7.33h0.006l0.006-0.007l0.012-0.012l0.012-0.006v-0.006l0.012-0.006
		l0.012-0.012l0.006-0.007l0.006-0.006l0.012-0.012l0.012-0.006h0.006L7.375-7.42c4.643-3.859,11.178-2.04,10.414,3.436
		c-0.029-0.835-0.221-1.599-0.56-2.29c-1.713-3.448-5.856-3.376-8.422-0.871C8.264-6.609,7.804-6,7.434-5.326
		C7.41-5.284,7.392-5.249,7.375-5.213L7.363-5.196L7.357-5.184L7.344-5.165L7.339-5.154L7.333-5.136L7.327-5.124l0,0l-0.018,0.03
		L7.297-5.071v0.006L7.279-5.04v0.006l-0.012,0.03H7.261L7.249-4.975l0,0l-0.012,0.03L7.231-4.939L7.219-4.909l0,0l-0.012,0.03
		H7.201L7.19-4.85v0.007L7.177-4.82L7.172-4.814L7.166-4.79L7.16-4.783L7.148-4.76L7.142-4.748L7.136-4.73L7.13-4.718L7.124-4.7
		L7.118-4.689L7.106-4.67L7.1-4.653L7.094-4.641L7.088-4.623L7.082-4.611L7.07-4.587v0.006L7.058-4.557v0.006L7.046-4.528
		L7.04-4.522l-0.006,0.03L7.029-4.486L7.016-4.462v0.007L7.005-4.432v0.006l-0.012,0.03l0,0L6.981-4.366l0,0l-0.012,0.03v0.006
		L6.957-4.307v0.006L6.945-4.277L6.939-4.253L6.933-4.247v0.012L6.921-4.217v0.012L6.909-4.188v0.013L6.897-4.152v0.012L6.891-4.121
		L6.885-4.11L6.879-4.092L6.873-4.074L6.867-4.062L6.861-4.044L6.855-4.032L6.849-4.014v0.012L6.837-3.979v0.006L6.825-3.948v0.006
		L6.82-3.913H6.813l-0.006,0.03v0.006L6.796-3.854v0.007L6.79-3.818l0,0l-0.012,0.03l0,0L6.766-3.758v0.006L6.759-3.728v0.006
		L6.748-3.698v0.012L6.742-3.668L6.736-3.656L6.73-3.639v0.012L6.724-3.603L6.718-3.591v0.019L6.712-3.561L6.706-3.543L6.7-3.526
		v0.013L6.694-3.495L6.688-3.484v0.018L6.682-3.453L6.676-3.43v0.006L6.67-3.4v0.012L6.664-3.364L6.658-3.359L6.653-3.334v0.006
		L6.646-3.299l0,0L6.64-3.269l-0.006,0.03v0.006L6.629-3.209L6.622-3.203L6.616-3.179v0.006L6.611-3.15v0.012L6.605-3.119v0.012
		L6.599-3.09v0.019L6.592-3.06v0.018L6.587-3.03v0.018L6.581-3v0.023v0.006L6.575-2.947v0.006L6.569-2.917v0.006l-0.006,0.03l0,0
		l-0.006,0.03l0,0L6.551-2.822l0,0v0.03v0.006L6.545-2.762v0.006L6.539-2.732v0.006v0.023L6.533-2.69v0.018v0.012L6.527-2.643v0.013
		v0.017L6.521-2.595v0.012v0.019L6.515-2.559v0.023v0.006v0.03H6.509v0.029l0,0v0.03l0,0l-0.006,0.03l0,0v0.029v0.006L6.497-2.35
		v0.006v0.023v0.006v0.019v0.012L6.491-2.267v0.012v0.018v0.018v0.012v0.019v0.012L6.485-2.159v0.012v0.019v0.006V-2.1v0.006v0.03
		l0,0v0.029l0,0v0.03l0,0v0.023v0.006v0.024v0.006v0.023v0.007v0.023v0.012v0.012v0.018v0.012v0.018v0.012v0.019v0.012v0.018v0.006
		v0.024v0.006L6.491-1.7v0.007v0.023v0.006v0.023l0,0v0.03l0,0l0.006,0.03l0,0v0.023v0.012v0.019l0.006,0.012v0.018l0.006,0.054
		v0.018V-1.413z"/>
	<path style="fill-rule:evenodd;clip-rule:evenodd;fill:#FED83C;" d="M20.463-5.267c0.227,0.638,0.334,1.288,0.322,1.944
		c-0.012,0.602-0.125,1.211-0.328,1.825c-0.209,0.62-0.508,1.211-0.9,1.777c-0.437,0.65-0.962,1.241-1.565,1.76
		c-0.603,0.525-1.266,0.948-1.982,1.276c-0.262,0.138-0.53,0.245-0.805,0.328c-0.269,0.084-0.537,0.155-0.801,0.215
		c0.49,0.328,0.974,0.722,1.445,1.175c0.472,0.447,0.949,0.919,1.426,1.414c0.479,0.489,0.955,0.972,1.433,1.449
		c0.478,0.478,0.974,0.9,1.48,1.276c0.513,0.37,1.038,0.662,1.575,0.883c0.543,0.221,1.111,0.322,1.701,0.292
		c0.113,0,0.162,0.12,0.144,0.358c-0.019,0.238-0.107,0.507-0.257,0.806c-0.148,0.292-0.363,0.566-0.639,0.811
		c-0.28,0.245-0.614,0.376-1.002,0.388c-0.544,0.012-1.087-0.173-1.636-0.549c-0.544-0.376-1.093-0.864-1.642-1.455
		c-0.543-0.591-1.092-1.241-1.629-1.95c-0.543-0.71-1.068-1.397-1.576-2.059c-0.514-0.655-1.008-1.24-1.485-1.741
		c-0.479-0.501-0.932-0.848-1.356-1.038c-0.125-0.024-0.25-0.048-0.382-0.077c-0.126-0.024-0.245-0.06-0.358-0.113
		c-0.072-0.019-0.125-0.054-0.173-0.102c0.692-0.173,1.325-0.394,1.903-0.674c0.704-0.347,1.343-0.752,1.898-1.211
		c0.562-0.466,1.063-0.984,1.504-1.551c0.442-0.567,0.83-1.17,1.164-1.808c0.46-0.847,0.788-1.802,0.985-2.863
		c0.185-0.954,0.256-1.933,0.233-2.929c0.078,0.084,0.148,0.167,0.227,0.257c0.238,0.286,0.447,0.59,0.633,0.912
		C20.2-5.917,20.35-5.595,20.463-5.267L20.463-5.267z"/>
	<path style="fill:#FED83C;" d="M8.043,3.853c-0.406-0.138-0.77-0.334-1.086-0.597C6.676,3.03,6.431,2.756,6.217,2.433
		c0.179,0.186,0.376,0.353,0.585,0.501c0.382,0.274,0.818,0.483,1.301,0.633c0.245,0.077,0.501,0.137,0.77,0.179
		c0.274,0.042,0.549,0.066,0.823,0.066c0.519-0.006,0.991-0.06,1.415-0.161c0.048-0.012,0.096-0.023,0.138-0.036
		c-0.203,0.096-0.418,0.18-0.645,0.251c-0.364,0.107-0.77,0.173-1.206,0.191C9.159,4.062,8.926,4.051,8.699,4.014
		C8.467,3.978,8.252,3.925,8.043,3.853L8.043,3.853z"/>
	<path style="fill:#FED83C;" d="M10.197,1.443c-0.43-0.048-0.824-0.167-1.194-0.352C8.681,0.93,8.383,0.716,8.103,0.453
		C8.323,0.596,8.55,0.716,8.789,0.817c0.43,0.179,0.901,0.292,1.403,0.334c0.256,0.024,0.52,0.024,0.794,0.006
		c0.274-0.018,0.549-0.06,0.817-0.119c0.501-0.119,0.949-0.274,1.343-0.465c0.042-0.019,0.09-0.042,0.131-0.066
		c-0.178,0.143-0.37,0.268-0.578,0.388c-0.335,0.186-0.711,0.334-1.134,0.448c-0.232,0.06-0.46,0.095-0.692,0.112
		C10.639,1.468,10.412,1.468,10.197,1.443L10.197,1.443z"/>
</g>
</svg>
